%TF.GenerationSoftware,KiCad,Pcbnew,7.0.5*%
%TF.CreationDate,2026-01-01T17:31:19-06:00*%
%TF.ProjectId,Lora58thsStubShunt,4c6f7261-3538-4746-9873-537475625368,rev?*%
%TF.SameCoordinates,Original*%
%TF.FileFunction,Copper,L1,Top*%
%TF.FilePolarity,Positive*%
%FSLAX46Y46*%
G04 Gerber Fmt 4.6, Leading zero omitted, Abs format (unit mm)*
G04 Created by KiCad (PCBNEW 7.0.5) date 2026-01-01 17:31:19*
%MOMM*%
%LPD*%
G01*
G04 APERTURE LIST*
G04 Aperture macros list*
%AMRoundRect*
0 Rectangle with rounded corners*
0 $1 Rounding radius*
0 $2 $3 $4 $5 $6 $7 $8 $9 X,Y pos of 4 corners*
0 Add a 4 corners polygon primitive as box body*
4,1,4,$2,$3,$4,$5,$6,$7,$8,$9,$2,$3,0*
0 Add four circle primitives for the rounded corners*
1,1,$1+$1,$2,$3*
1,1,$1+$1,$4,$5*
1,1,$1+$1,$6,$7*
1,1,$1+$1,$8,$9*
0 Add four rect primitives between the rounded corners*
20,1,$1+$1,$2,$3,$4,$5,0*
20,1,$1+$1,$4,$5,$6,$7,0*
20,1,$1+$1,$6,$7,$8,$9,0*
20,1,$1+$1,$8,$9,$2,$3,0*%
G04 Aperture macros list end*
%TA.AperFunction,SMDPad,CuDef*%
%ADD10RoundRect,0.160000X-0.160000X0.197500X-0.160000X-0.197500X0.160000X-0.197500X0.160000X0.197500X0*%
%TD*%
%TA.AperFunction,SMDPad,CuDef*%
%ADD11R,5.080000X2.290000*%
%TD*%
%TA.AperFunction,SMDPad,CuDef*%
%ADD12R,5.080000X2.420000*%
%TD*%
%TA.AperFunction,SMDPad,CuDef*%
%ADD13R,0.950000X0.460000*%
%TD*%
%TA.AperFunction,ComponentPad*%
%ADD14C,0.970000*%
%TD*%
%TA.AperFunction,SMDPad,CuDef*%
%ADD15R,3.400000X1.800000*%
%TD*%
%TA.AperFunction,ViaPad*%
%ADD16C,0.600000*%
%TD*%
%TA.AperFunction,Conductor*%
%ADD17C,1.100000*%
%TD*%
%TA.AperFunction,Conductor*%
%ADD18C,0.770000*%
%TD*%
G04 APERTURE END LIST*
D10*
%TO.P,R2,1*%
%TO.N,Net-(J1-In)*%
X87000000Y-83002500D03*
%TO.P,R2,2*%
%TO.N,GND*%
X87000000Y-84197500D03*
%TD*%
%TO.P,R1,1*%
%TO.N,Net-(J1-In)*%
X88500000Y-83002500D03*
%TO.P,R1,2*%
%TO.N,GND*%
X88500000Y-84197500D03*
%TD*%
D11*
%TO.P,J1,1,In*%
%TO.N,Net-(J1-In)*%
X81780000Y-83000000D03*
D12*
%TO.P,J1,2,Ext*%
%TO.N,GND*%
X81780000Y-78620000D03*
X81780000Y-87380000D03*
D13*
X84770000Y-78620000D03*
X84770000Y-87380000D03*
D14*
X85220000Y-78620000D03*
X85220000Y-87380000D03*
%TD*%
D15*
%TO.P,J3,1,Pin_1*%
%TO.N,Net-(AE1-A)*%
X112500000Y-83000000D03*
%TD*%
%TO.P,J2,1,Pin_1*%
%TO.N,Net-(J1-In)*%
X95500000Y-83000000D03*
%TD*%
D16*
%TO.N,GND*%
X86500000Y-88500000D03*
X88500000Y-86500000D03*
X93750000Y-88500000D03*
X86000000Y-86500000D03*
X97025000Y-85900000D03*
X95175000Y-85900000D03*
X91775000Y-85500000D03*
X93325000Y-85900000D03*
X89500000Y-88500000D03*
X87000000Y-86500000D03*
X89925000Y-85525000D03*
X96000000Y-88500000D03*
X91500000Y-88500000D03*
X96975000Y-87300000D03*
%TD*%
D17*
%TO.N,Net-(J1-In)*%
X90500000Y-77500000D02*
X146000000Y-77500000D01*
X90350000Y-83000000D02*
X90347500Y-83002500D01*
X146000000Y-77500000D02*
X159552900Y-77500000D01*
X90000000Y-83002500D02*
X90000000Y-78000000D01*
X90000000Y-78000000D02*
X90500000Y-77500000D01*
X88500000Y-83002500D02*
X89000000Y-83002500D01*
X86997500Y-83000000D02*
X87000000Y-83002500D01*
X91650000Y-83000000D02*
X90350000Y-83000000D01*
X89000000Y-83002500D02*
X87000000Y-83002500D01*
X81780000Y-83000000D02*
X86997500Y-83000000D01*
X91650000Y-83000000D02*
X95500000Y-83000000D01*
X89000000Y-83002500D02*
X90347500Y-83002500D01*
D18*
%TO.N,GND*%
X87000000Y-84197500D02*
X87000000Y-84950000D01*
D17*
X87000000Y-84950000D02*
X87000000Y-86500000D01*
X88500000Y-84925000D02*
X88500000Y-86475000D01*
D18*
X88500000Y-84172500D02*
X88500000Y-84925000D01*
%TD*%
%TA.AperFunction,Conductor*%
%TO.N,GND*%
G36*
X86857357Y-84701132D02*
G01*
X86869445Y-84703000D01*
X86917215Y-84703000D01*
X86919792Y-84703123D01*
X86967332Y-84707691D01*
X87014605Y-84704971D01*
X87048099Y-84703045D01*
X87049650Y-84703000D01*
X88369445Y-84703000D01*
X88869445Y-84703000D01*
X89900618Y-84703000D01*
X89903716Y-84703177D01*
X89934675Y-84706752D01*
X90032045Y-84703019D01*
X90033070Y-84703000D01*
X90231502Y-84703000D01*
X90235116Y-84703243D01*
X90249542Y-84705189D01*
X90249546Y-84705188D01*
X90249548Y-84705189D01*
X90311858Y-84703994D01*
X90363789Y-84703000D01*
X90412677Y-84703000D01*
X90428185Y-84701808D01*
X90429700Y-84701736D01*
X90494268Y-84700500D01*
X91519445Y-84700500D01*
X92951079Y-84700500D01*
X92989263Y-84716316D01*
X93061858Y-84788911D01*
X93061863Y-84788914D01*
X93061865Y-84788916D01*
X93237762Y-84909409D01*
X93307561Y-84940227D01*
X93432815Y-84995532D01*
X93640370Y-85044349D01*
X93728985Y-85050500D01*
X97242277Y-85050500D01*
X97280461Y-85066316D01*
X97296143Y-85100711D01*
X97305975Y-85240529D01*
X97498272Y-87975438D01*
X97485173Y-88014638D01*
X97482589Y-88017410D01*
X96515816Y-88984184D01*
X96477632Y-89000000D01*
X81386156Y-89000000D01*
X79055032Y-88999511D01*
X79016851Y-88983687D01*
X79001043Y-88945500D01*
X79001051Y-88944602D01*
X79069390Y-85345435D01*
X79085927Y-85307562D01*
X79124404Y-85292474D01*
X79127118Y-85292594D01*
X79168985Y-85295500D01*
X79168988Y-85295500D01*
X84391015Y-85295500D01*
X84444182Y-85291809D01*
X84479630Y-85289349D01*
X84687185Y-85240532D01*
X84882237Y-85154409D01*
X85058142Y-85033911D01*
X85208911Y-84883142D01*
X85317938Y-84723982D01*
X85352564Y-84701419D01*
X85362487Y-84700500D01*
X86849115Y-84700500D01*
X86857357Y-84701132D01*
G37*
%TD.AperFunction*%
%TD*%
M02*
