%TF.GenerationSoftware,KiCad,Pcbnew,7.0.5*%
%TF.CreationDate,2026-01-01T17:31:19-06:00*%
%TF.ProjectId,Lora58thsStubShunt,4c6f7261-3538-4746-9873-537475625368,rev?*%
%TF.SameCoordinates,Original*%
%TF.FileFunction,Legend,Top*%
%TF.FilePolarity,Positive*%
%FSLAX46Y46*%
G04 Gerber Fmt 4.6, Leading zero omitted, Abs format (unit mm)*
G04 Created by KiCad (PCBNEW 7.0.5) date 2026-01-01 17:31:19*
%MOMM*%
%LPD*%
G01*
G04 APERTURE LIST*
%ADD10C,0.150000*%
%ADD11C,3.300000*%
%ADD12C,0.120000*%
G04 APERTURE END LIST*
D10*
X146930000Y-76850000D02*
X146930000Y-76350000D01*
X147930000Y-76850000D02*
X147930000Y-76350000D01*
X149630000Y-74850000D02*
G75*
G03*
X149630000Y-74850000I-500000J0D01*
G01*
D11*
X99500000Y-83000000D02*
X106875000Y-82950000D01*
D10*
X156930000Y-76850000D02*
X156930000Y-76350000D01*
X149930000Y-76850000D02*
X149930000Y-76350000D01*
X145930000Y-76850000D02*
X145930000Y-74850000D01*
X153930000Y-76850000D02*
X153930000Y-76350000D01*
X155930000Y-76850000D02*
X155930000Y-74850000D01*
X154930000Y-76850000D02*
X154930000Y-76350000D01*
X157930000Y-76850000D02*
X157930000Y-76350000D01*
X159930000Y-76850000D02*
X159930000Y-76350000D01*
X151930000Y-76850000D02*
X151930000Y-76350000D01*
X150930000Y-76850000D02*
X150930000Y-76350000D01*
X152930000Y-76850000D02*
X152930000Y-76350000D01*
X149130000Y-76350000D02*
X149130000Y-75850000D01*
X158930000Y-76850000D02*
X158930000Y-76350000D01*
X148930000Y-76850000D02*
X148930000Y-76350000D01*
X156611541Y-74839819D02*
X157278207Y-74839819D01*
X157278207Y-74839819D02*
X156849636Y-75839819D01*
X158087731Y-75792200D02*
X157992493Y-75839819D01*
X157992493Y-75839819D02*
X157802017Y-75839819D01*
X157802017Y-75839819D02*
X157706779Y-75792200D01*
X157706779Y-75792200D02*
X157659160Y-75744580D01*
X157659160Y-75744580D02*
X157611541Y-75649342D01*
X157611541Y-75649342D02*
X157611541Y-75363628D01*
X157611541Y-75363628D02*
X157659160Y-75268390D01*
X157659160Y-75268390D02*
X157706779Y-75220771D01*
X157706779Y-75220771D02*
X157802017Y-75173152D01*
X157802017Y-75173152D02*
X157992493Y-75173152D01*
X157992493Y-75173152D02*
X158087731Y-75220771D01*
X158516303Y-75839819D02*
X158516303Y-75173152D01*
X158516303Y-75268390D02*
X158563922Y-75220771D01*
X158563922Y-75220771D02*
X158659160Y-75173152D01*
X158659160Y-75173152D02*
X158802017Y-75173152D01*
X158802017Y-75173152D02*
X158897255Y-75220771D01*
X158897255Y-75220771D02*
X158944874Y-75316009D01*
X158944874Y-75316009D02*
X158944874Y-75839819D01*
X158944874Y-75316009D02*
X158992493Y-75220771D01*
X158992493Y-75220771D02*
X159087731Y-75173152D01*
X159087731Y-75173152D02*
X159230588Y-75173152D01*
X159230588Y-75173152D02*
X159325827Y-75220771D01*
X159325827Y-75220771D02*
X159373446Y-75316009D01*
X159373446Y-75316009D02*
X159373446Y-75839819D01*
%TO.C,R2*%
X87404819Y-81266666D02*
X86928628Y-81599999D01*
X87404819Y-81838094D02*
X86404819Y-81838094D01*
X86404819Y-81838094D02*
X86404819Y-81457142D01*
X86404819Y-81457142D02*
X86452438Y-81361904D01*
X86452438Y-81361904D02*
X86500057Y-81314285D01*
X86500057Y-81314285D02*
X86595295Y-81266666D01*
X86595295Y-81266666D02*
X86738152Y-81266666D01*
X86738152Y-81266666D02*
X86833390Y-81314285D01*
X86833390Y-81314285D02*
X86881009Y-81361904D01*
X86881009Y-81361904D02*
X86928628Y-81457142D01*
X86928628Y-81457142D02*
X86928628Y-81838094D01*
X86500057Y-80885713D02*
X86452438Y-80838094D01*
X86452438Y-80838094D02*
X86404819Y-80742856D01*
X86404819Y-80742856D02*
X86404819Y-80504761D01*
X86404819Y-80504761D02*
X86452438Y-80409523D01*
X86452438Y-80409523D02*
X86500057Y-80361904D01*
X86500057Y-80361904D02*
X86595295Y-80314285D01*
X86595295Y-80314285D02*
X86690533Y-80314285D01*
X86690533Y-80314285D02*
X86833390Y-80361904D01*
X86833390Y-80361904D02*
X87404819Y-80933332D01*
X87404819Y-80933332D02*
X87404819Y-80314285D01*
%TO.C,R1*%
X88954819Y-81266666D02*
X88478628Y-81599999D01*
X88954819Y-81838094D02*
X87954819Y-81838094D01*
X87954819Y-81838094D02*
X87954819Y-81457142D01*
X87954819Y-81457142D02*
X88002438Y-81361904D01*
X88002438Y-81361904D02*
X88050057Y-81314285D01*
X88050057Y-81314285D02*
X88145295Y-81266666D01*
X88145295Y-81266666D02*
X88288152Y-81266666D01*
X88288152Y-81266666D02*
X88383390Y-81314285D01*
X88383390Y-81314285D02*
X88431009Y-81361904D01*
X88431009Y-81361904D02*
X88478628Y-81457142D01*
X88478628Y-81457142D02*
X88478628Y-81838094D01*
X88954819Y-80314285D02*
X88954819Y-80885713D01*
X88954819Y-80599999D02*
X87954819Y-80599999D01*
X87954819Y-80599999D02*
X88097676Y-80695237D01*
X88097676Y-80695237D02*
X88192914Y-80790475D01*
X88192914Y-80790475D02*
X88240533Y-80885713D01*
%TO.C,J1*%
X81666666Y-89454819D02*
X81666666Y-90169104D01*
X81666666Y-90169104D02*
X81619047Y-90311961D01*
X81619047Y-90311961D02*
X81523809Y-90407200D01*
X81523809Y-90407200D02*
X81380952Y-90454819D01*
X81380952Y-90454819D02*
X81285714Y-90454819D01*
X82666666Y-90454819D02*
X82095238Y-90454819D01*
X82380952Y-90454819D02*
X82380952Y-89454819D01*
X82380952Y-89454819D02*
X82285714Y-89597676D01*
X82285714Y-89597676D02*
X82190476Y-89692914D01*
X82190476Y-89692914D02*
X82095238Y-89740533D01*
%TO.C,J3*%
G36*
X110637500Y-84080357D02*
G01*
X108012500Y-84080357D01*
X108012500Y-83490943D01*
X108533344Y-83490943D01*
X108551640Y-83531007D01*
X108588692Y-83554819D01*
X108696550Y-83554819D01*
X108708777Y-83557934D01*
X108728389Y-83551396D01*
X108748212Y-83545576D01*
X108749170Y-83544469D01*
X108868696Y-83504627D01*
X108886270Y-83500805D01*
X108897110Y-83489964D01*
X108909694Y-83481219D01*
X108912401Y-83474672D01*
X108994226Y-83392847D01*
X109008234Y-83381570D01*
X109009090Y-83379003D01*
X109294652Y-83379003D01*
X109304014Y-83422040D01*
X109360555Y-83478583D01*
X109367000Y-83489434D01*
X109385511Y-83498689D01*
X109403622Y-83508579D01*
X109405081Y-83508474D01*
X109478327Y-83545097D01*
X109493454Y-83554819D01*
X109508784Y-83554819D01*
X109523867Y-83557533D01*
X109530411Y-83554819D01*
X109797150Y-83554819D01*
X109815034Y-83556750D01*
X109828747Y-83549893D01*
X109843450Y-83545576D01*
X109848088Y-83540222D01*
X109921556Y-83503487D01*
X109933890Y-83500805D01*
X109948521Y-83486172D01*
X109963634Y-83472116D01*
X109963996Y-83470696D01*
X109990430Y-83444262D01*
X110001281Y-83437818D01*
X110010537Y-83419304D01*
X110020427Y-83401194D01*
X110020322Y-83399734D01*
X110056944Y-83326490D01*
X110066666Y-83311364D01*
X110066666Y-83296034D01*
X110069380Y-83280951D01*
X110066666Y-83274407D01*
X110066666Y-83055277D01*
X110068596Y-83037403D01*
X110061741Y-83023693D01*
X110057423Y-83008987D01*
X110052068Y-83004347D01*
X110015334Y-82930878D01*
X110012652Y-82918548D01*
X109998032Y-82903928D01*
X109983963Y-82888803D01*
X109982544Y-82888440D01*
X109956109Y-82862005D01*
X109949666Y-82851156D01*
X109931165Y-82841905D01*
X109913043Y-82832010D01*
X109911582Y-82832114D01*
X109838341Y-82795494D01*
X109823470Y-82785936D01*
X110033737Y-82545631D01*
X110033926Y-82545576D01*
X110048230Y-82529067D01*
X110055209Y-82521092D01*
X110055286Y-82520924D01*
X110062768Y-82512290D01*
X110064341Y-82501349D01*
X110068982Y-82491316D01*
X110067410Y-82480000D01*
X110069036Y-82468695D01*
X110064444Y-82458640D01*
X110062924Y-82447692D01*
X110055486Y-82439023D01*
X110050740Y-82428631D01*
X110041439Y-82422653D01*
X110034243Y-82414267D01*
X110023299Y-82410996D01*
X110013688Y-82404819D01*
X110002633Y-82404819D01*
X109992044Y-82401654D01*
X109981069Y-82404819D01*
X109361837Y-82404819D01*
X109330359Y-82414062D01*
X109301517Y-82447348D01*
X109295249Y-82490943D01*
X109313545Y-82531007D01*
X109350597Y-82554819D01*
X109826383Y-82554819D01*
X109616260Y-82794958D01*
X109616073Y-82795014D01*
X109601855Y-82811421D01*
X109594790Y-82819497D01*
X109594711Y-82819667D01*
X109587231Y-82828300D01*
X109585658Y-82839240D01*
X109581017Y-82849274D01*
X109582588Y-82860589D01*
X109580963Y-82871895D01*
X109585554Y-82881949D01*
X109587075Y-82892898D01*
X109594512Y-82901566D01*
X109599259Y-82911959D01*
X109608559Y-82917936D01*
X109615756Y-82926323D01*
X109626699Y-82929593D01*
X109636311Y-82935771D01*
X109647366Y-82935771D01*
X109657955Y-82938936D01*
X109668930Y-82935771D01*
X109783484Y-82935771D01*
X109852002Y-82970030D01*
X109882407Y-83000435D01*
X109916666Y-83068951D01*
X109916666Y-83271636D01*
X109882407Y-83340153D01*
X109851999Y-83370561D01*
X109783485Y-83404819D01*
X109533182Y-83404819D01*
X109464664Y-83370560D01*
X109418029Y-83323923D01*
X109389235Y-83308201D01*
X109345304Y-83311343D01*
X109310045Y-83337736D01*
X109294652Y-83379003D01*
X109009090Y-83379003D01*
X109013081Y-83367028D01*
X109020427Y-83353575D01*
X109019921Y-83346508D01*
X109059844Y-83226740D01*
X109066666Y-83216126D01*
X109066666Y-83195446D01*
X109067412Y-83174807D01*
X109066666Y-83173548D01*
X109066666Y-82469037D01*
X109057423Y-82437559D01*
X109024137Y-82408717D01*
X108980542Y-82402449D01*
X108940478Y-82420745D01*
X108916666Y-82457797D01*
X108916665Y-83181933D01*
X108878494Y-83296447D01*
X108808295Y-83366647D01*
X108693780Y-83404819D01*
X108599932Y-83404819D01*
X108568454Y-83414062D01*
X108539612Y-83447348D01*
X108533344Y-83490943D01*
X108012500Y-83490943D01*
X108012500Y-81969643D01*
X110637500Y-81969643D01*
X110637500Y-84080357D01*
G37*
%TO.C,J2*%
X95166666Y-80204819D02*
X95166666Y-80919104D01*
X95166666Y-80919104D02*
X95119047Y-81061961D01*
X95119047Y-81061961D02*
X95023809Y-81157200D01*
X95023809Y-81157200D02*
X94880952Y-81204819D01*
X94880952Y-81204819D02*
X94785714Y-81204819D01*
X95595238Y-80300057D02*
X95642857Y-80252438D01*
X95642857Y-80252438D02*
X95738095Y-80204819D01*
X95738095Y-80204819D02*
X95976190Y-80204819D01*
X95976190Y-80204819D02*
X96071428Y-80252438D01*
X96071428Y-80252438D02*
X96119047Y-80300057D01*
X96119047Y-80300057D02*
X96166666Y-80395295D01*
X96166666Y-80395295D02*
X96166666Y-80490533D01*
X96166666Y-80490533D02*
X96119047Y-80633390D01*
X96119047Y-80633390D02*
X95547619Y-81204819D01*
X95547619Y-81204819D02*
X96166666Y-81204819D01*
D12*
%TO.C,R2*%
X87380000Y-83432379D02*
X87380000Y-83767621D01*
X86620000Y-83432379D02*
X86620000Y-83767621D01*
%TO.C,R1*%
X88880000Y-83432379D02*
X88880000Y-83767621D01*
X88120000Y-83432379D02*
X88120000Y-83767621D01*
%TO.C,J1*%
X85500000Y-83000000D02*
X86000000Y-82750000D01*
X86000000Y-82750000D02*
X86000000Y-83250000D01*
X86000000Y-83250000D02*
X85500000Y-83000000D01*
D10*
%TO.C,J3*%
X110600000Y-81900000D02*
X114400000Y-81900000D01*
X110600000Y-84100000D02*
X110600000Y-81900000D01*
X114400000Y-81900000D02*
X114400000Y-84100000D01*
X114400000Y-84100000D02*
X110600000Y-84100000D01*
%TO.C,J2*%
X93600000Y-81900000D02*
X97400000Y-81900000D01*
X93600000Y-84100000D02*
X93600000Y-81900000D01*
X97400000Y-81900000D02*
X97400000Y-84100000D01*
X97400000Y-84100000D02*
X93600000Y-84100000D01*
%TD*%
M02*
