%TF.GenerationSoftware,KiCad,Pcbnew,7.0.5*%
%TF.CreationDate,2026-01-01T21:50:29-06:00*%
%TF.ProjectId,Lora58thsStubShunt,4c6f7261-3538-4746-9873-537475625368,rev?*%
%TF.SameCoordinates,Original*%
%TF.FileFunction,Legend,Top*%
%TF.FilePolarity,Positive*%
%FSLAX46Y46*%
G04 Gerber Fmt 4.6, Leading zero omitted, Abs format (unit mm)*
G04 Created by KiCad (PCBNEW 7.0.5) date 2026-01-01 21:50:29*
%MOMM*%
%LPD*%
G01*
G04 APERTURE LIST*
%ADD10C,3.300000*%
%ADD11C,0.150000*%
%ADD12C,0.120000*%
G04 APERTURE END LIST*
D10*
X99500000Y-83000000D02*
X106550000Y-83000000D01*
D11*
%TO.C,R2*%
X87454819Y-87041666D02*
X86978628Y-87374999D01*
X87454819Y-87613094D02*
X86454819Y-87613094D01*
X86454819Y-87613094D02*
X86454819Y-87232142D01*
X86454819Y-87232142D02*
X86502438Y-87136904D01*
X86502438Y-87136904D02*
X86550057Y-87089285D01*
X86550057Y-87089285D02*
X86645295Y-87041666D01*
X86645295Y-87041666D02*
X86788152Y-87041666D01*
X86788152Y-87041666D02*
X86883390Y-87089285D01*
X86883390Y-87089285D02*
X86931009Y-87136904D01*
X86931009Y-87136904D02*
X86978628Y-87232142D01*
X86978628Y-87232142D02*
X86978628Y-87613094D01*
X86550057Y-86660713D02*
X86502438Y-86613094D01*
X86502438Y-86613094D02*
X86454819Y-86517856D01*
X86454819Y-86517856D02*
X86454819Y-86279761D01*
X86454819Y-86279761D02*
X86502438Y-86184523D01*
X86502438Y-86184523D02*
X86550057Y-86136904D01*
X86550057Y-86136904D02*
X86645295Y-86089285D01*
X86645295Y-86089285D02*
X86740533Y-86089285D01*
X86740533Y-86089285D02*
X86883390Y-86136904D01*
X86883390Y-86136904D02*
X87454819Y-86708332D01*
X87454819Y-86708332D02*
X87454819Y-86089285D01*
%TO.C,C2*%
X91208333Y-88009580D02*
X91160714Y-88057200D01*
X91160714Y-88057200D02*
X91017857Y-88104819D01*
X91017857Y-88104819D02*
X90922619Y-88104819D01*
X90922619Y-88104819D02*
X90779762Y-88057200D01*
X90779762Y-88057200D02*
X90684524Y-87961961D01*
X90684524Y-87961961D02*
X90636905Y-87866723D01*
X90636905Y-87866723D02*
X90589286Y-87676247D01*
X90589286Y-87676247D02*
X90589286Y-87533390D01*
X90589286Y-87533390D02*
X90636905Y-87342914D01*
X90636905Y-87342914D02*
X90684524Y-87247676D01*
X90684524Y-87247676D02*
X90779762Y-87152438D01*
X90779762Y-87152438D02*
X90922619Y-87104819D01*
X90922619Y-87104819D02*
X91017857Y-87104819D01*
X91017857Y-87104819D02*
X91160714Y-87152438D01*
X91160714Y-87152438D02*
X91208333Y-87200057D01*
X91589286Y-87200057D02*
X91636905Y-87152438D01*
X91636905Y-87152438D02*
X91732143Y-87104819D01*
X91732143Y-87104819D02*
X91970238Y-87104819D01*
X91970238Y-87104819D02*
X92065476Y-87152438D01*
X92065476Y-87152438D02*
X92113095Y-87200057D01*
X92113095Y-87200057D02*
X92160714Y-87295295D01*
X92160714Y-87295295D02*
X92160714Y-87390533D01*
X92160714Y-87390533D02*
X92113095Y-87533390D01*
X92113095Y-87533390D02*
X91541667Y-88104819D01*
X91541667Y-88104819D02*
X92160714Y-88104819D01*
%TO.C,R1*%
X89154819Y-87016666D02*
X88678628Y-87349999D01*
X89154819Y-87588094D02*
X88154819Y-87588094D01*
X88154819Y-87588094D02*
X88154819Y-87207142D01*
X88154819Y-87207142D02*
X88202438Y-87111904D01*
X88202438Y-87111904D02*
X88250057Y-87064285D01*
X88250057Y-87064285D02*
X88345295Y-87016666D01*
X88345295Y-87016666D02*
X88488152Y-87016666D01*
X88488152Y-87016666D02*
X88583390Y-87064285D01*
X88583390Y-87064285D02*
X88631009Y-87111904D01*
X88631009Y-87111904D02*
X88678628Y-87207142D01*
X88678628Y-87207142D02*
X88678628Y-87588094D01*
X89154819Y-86064285D02*
X89154819Y-86635713D01*
X89154819Y-86349999D02*
X88154819Y-86349999D01*
X88154819Y-86349999D02*
X88297676Y-86445237D01*
X88297676Y-86445237D02*
X88392914Y-86540475D01*
X88392914Y-86540475D02*
X88440533Y-86635713D01*
%TO.C,J1*%
X85666666Y-80554819D02*
X85666666Y-81269104D01*
X85666666Y-81269104D02*
X85619047Y-81411961D01*
X85619047Y-81411961D02*
X85523809Y-81507200D01*
X85523809Y-81507200D02*
X85380952Y-81554819D01*
X85380952Y-81554819D02*
X85285714Y-81554819D01*
X86666666Y-81554819D02*
X86095238Y-81554819D01*
X86380952Y-81554819D02*
X86380952Y-80554819D01*
X86380952Y-80554819D02*
X86285714Y-80697676D01*
X86285714Y-80697676D02*
X86190476Y-80792914D01*
X86190476Y-80792914D02*
X86095238Y-80840533D01*
%TO.C,C1*%
X91233333Y-86709580D02*
X91185714Y-86757200D01*
X91185714Y-86757200D02*
X91042857Y-86804819D01*
X91042857Y-86804819D02*
X90947619Y-86804819D01*
X90947619Y-86804819D02*
X90804762Y-86757200D01*
X90804762Y-86757200D02*
X90709524Y-86661961D01*
X90709524Y-86661961D02*
X90661905Y-86566723D01*
X90661905Y-86566723D02*
X90614286Y-86376247D01*
X90614286Y-86376247D02*
X90614286Y-86233390D01*
X90614286Y-86233390D02*
X90661905Y-86042914D01*
X90661905Y-86042914D02*
X90709524Y-85947676D01*
X90709524Y-85947676D02*
X90804762Y-85852438D01*
X90804762Y-85852438D02*
X90947619Y-85804819D01*
X90947619Y-85804819D02*
X91042857Y-85804819D01*
X91042857Y-85804819D02*
X91185714Y-85852438D01*
X91185714Y-85852438D02*
X91233333Y-85900057D01*
X92185714Y-86804819D02*
X91614286Y-86804819D01*
X91900000Y-86804819D02*
X91900000Y-85804819D01*
X91900000Y-85804819D02*
X91804762Y-85947676D01*
X91804762Y-85947676D02*
X91709524Y-86042914D01*
X91709524Y-86042914D02*
X91614286Y-86090533D01*
%TO.C,J3*%
G36*
X110337500Y-84055357D02*
G01*
X107712500Y-84055357D01*
X107712500Y-83465943D01*
X108233344Y-83465943D01*
X108251640Y-83506007D01*
X108288692Y-83529819D01*
X108396550Y-83529819D01*
X108408777Y-83532934D01*
X108428389Y-83526396D01*
X108448212Y-83520576D01*
X108449170Y-83519469D01*
X108568696Y-83479627D01*
X108586270Y-83475805D01*
X108597110Y-83464964D01*
X108609694Y-83456219D01*
X108612401Y-83449672D01*
X108694226Y-83367847D01*
X108708234Y-83356570D01*
X108709090Y-83354003D01*
X108994652Y-83354003D01*
X109004014Y-83397040D01*
X109060555Y-83453583D01*
X109067000Y-83464434D01*
X109085511Y-83473689D01*
X109103622Y-83483579D01*
X109105081Y-83483474D01*
X109178327Y-83520097D01*
X109193454Y-83529819D01*
X109208784Y-83529819D01*
X109223867Y-83532533D01*
X109230411Y-83529819D01*
X109497150Y-83529819D01*
X109515034Y-83531750D01*
X109528747Y-83524893D01*
X109543450Y-83520576D01*
X109548088Y-83515222D01*
X109621556Y-83478487D01*
X109633890Y-83475805D01*
X109648521Y-83461172D01*
X109663634Y-83447116D01*
X109663996Y-83445696D01*
X109690430Y-83419262D01*
X109701281Y-83412818D01*
X109710537Y-83394304D01*
X109720427Y-83376194D01*
X109720322Y-83374734D01*
X109756944Y-83301490D01*
X109766666Y-83286364D01*
X109766666Y-83271034D01*
X109769380Y-83255951D01*
X109766666Y-83249407D01*
X109766666Y-83030277D01*
X109768596Y-83012403D01*
X109761741Y-82998693D01*
X109757423Y-82983987D01*
X109752068Y-82979347D01*
X109715334Y-82905878D01*
X109712652Y-82893548D01*
X109698032Y-82878928D01*
X109683963Y-82863803D01*
X109682544Y-82863440D01*
X109656109Y-82837005D01*
X109649666Y-82826156D01*
X109631165Y-82816905D01*
X109613043Y-82807010D01*
X109611582Y-82807114D01*
X109538341Y-82770494D01*
X109523470Y-82760936D01*
X109733737Y-82520631D01*
X109733926Y-82520576D01*
X109748230Y-82504067D01*
X109755209Y-82496092D01*
X109755286Y-82495924D01*
X109762768Y-82487290D01*
X109764341Y-82476349D01*
X109768982Y-82466316D01*
X109767410Y-82455000D01*
X109769036Y-82443695D01*
X109764444Y-82433640D01*
X109762924Y-82422692D01*
X109755486Y-82414023D01*
X109750740Y-82403631D01*
X109741439Y-82397653D01*
X109734243Y-82389267D01*
X109723299Y-82385996D01*
X109713688Y-82379819D01*
X109702633Y-82379819D01*
X109692044Y-82376654D01*
X109681069Y-82379819D01*
X109061837Y-82379819D01*
X109030359Y-82389062D01*
X109001517Y-82422348D01*
X108995249Y-82465943D01*
X109013545Y-82506007D01*
X109050597Y-82529819D01*
X109526383Y-82529819D01*
X109316260Y-82769958D01*
X109316073Y-82770014D01*
X109301855Y-82786421D01*
X109294790Y-82794497D01*
X109294711Y-82794667D01*
X109287231Y-82803300D01*
X109285658Y-82814240D01*
X109281017Y-82824274D01*
X109282588Y-82835589D01*
X109280963Y-82846895D01*
X109285554Y-82856949D01*
X109287075Y-82867898D01*
X109294512Y-82876566D01*
X109299259Y-82886959D01*
X109308559Y-82892936D01*
X109315756Y-82901323D01*
X109326699Y-82904593D01*
X109336311Y-82910771D01*
X109347366Y-82910771D01*
X109357955Y-82913936D01*
X109368930Y-82910771D01*
X109483484Y-82910771D01*
X109552002Y-82945030D01*
X109582407Y-82975435D01*
X109616666Y-83043951D01*
X109616666Y-83246636D01*
X109582407Y-83315153D01*
X109551999Y-83345561D01*
X109483485Y-83379819D01*
X109233182Y-83379819D01*
X109164664Y-83345560D01*
X109118029Y-83298923D01*
X109089235Y-83283201D01*
X109045304Y-83286343D01*
X109010045Y-83312736D01*
X108994652Y-83354003D01*
X108709090Y-83354003D01*
X108713081Y-83342028D01*
X108720427Y-83328575D01*
X108719921Y-83321508D01*
X108759844Y-83201740D01*
X108766666Y-83191126D01*
X108766666Y-83170446D01*
X108767412Y-83149807D01*
X108766666Y-83148548D01*
X108766666Y-82444037D01*
X108757423Y-82412559D01*
X108724137Y-82383717D01*
X108680542Y-82377449D01*
X108640478Y-82395745D01*
X108616666Y-82432797D01*
X108616666Y-83156933D01*
X108578494Y-83271447D01*
X108508295Y-83341647D01*
X108393780Y-83379819D01*
X108299932Y-83379819D01*
X108268454Y-83389062D01*
X108239612Y-83422348D01*
X108233344Y-83465943D01*
X107712500Y-83465943D01*
X107712500Y-81944643D01*
X110337500Y-81944643D01*
X110337500Y-84055357D01*
G37*
%TO.C,J2*%
X93941666Y-85254819D02*
X93941666Y-85969104D01*
X93941666Y-85969104D02*
X93894047Y-86111961D01*
X93894047Y-86111961D02*
X93798809Y-86207200D01*
X93798809Y-86207200D02*
X93655952Y-86254819D01*
X93655952Y-86254819D02*
X93560714Y-86254819D01*
X94370238Y-85350057D02*
X94417857Y-85302438D01*
X94417857Y-85302438D02*
X94513095Y-85254819D01*
X94513095Y-85254819D02*
X94751190Y-85254819D01*
X94751190Y-85254819D02*
X94846428Y-85302438D01*
X94846428Y-85302438D02*
X94894047Y-85350057D01*
X94894047Y-85350057D02*
X94941666Y-85445295D01*
X94941666Y-85445295D02*
X94941666Y-85540533D01*
X94941666Y-85540533D02*
X94894047Y-85683390D01*
X94894047Y-85683390D02*
X94322619Y-86254819D01*
X94322619Y-86254819D02*
X94941666Y-86254819D01*
%TO.C,J4*%
X87204819Y-79333333D02*
X87919104Y-79333333D01*
X87919104Y-79333333D02*
X88061961Y-79380952D01*
X88061961Y-79380952D02*
X88157200Y-79476190D01*
X88157200Y-79476190D02*
X88204819Y-79619047D01*
X88204819Y-79619047D02*
X88204819Y-79714285D01*
X87538152Y-78428571D02*
X88204819Y-78428571D01*
X87157200Y-78666666D02*
X87871485Y-78904761D01*
X87871485Y-78904761D02*
X87871485Y-78285714D01*
D12*
%TO.C,R2*%
X87380000Y-83432379D02*
X87380000Y-83767621D01*
X86620000Y-83432379D02*
X86620000Y-83767621D01*
%TO.C,C2*%
X90832379Y-83095000D02*
X91167621Y-83095000D01*
X90832379Y-83855000D02*
X91167621Y-83855000D01*
%TO.C,R1*%
X88880000Y-83432379D02*
X88880000Y-83767621D01*
X88120000Y-83432379D02*
X88120000Y-83767621D01*
%TO.C,J1*%
X85500000Y-83000000D02*
X86000000Y-82750000D01*
X86000000Y-82750000D02*
X86000000Y-83250000D01*
X86000000Y-83250000D02*
X85500000Y-83000000D01*
%TO.C,C1*%
X90832379Y-82095000D02*
X91167621Y-82095000D01*
X90832379Y-82855000D02*
X91167621Y-82855000D01*
D11*
%TO.C,J3*%
X110600000Y-81900000D02*
X114400000Y-81900000D01*
X110600000Y-84100000D02*
X110600000Y-81900000D01*
X114400000Y-81900000D02*
X114400000Y-84100000D01*
X114400000Y-84100000D02*
X110600000Y-84100000D01*
%TO.C,J2*%
X93600000Y-81900000D02*
X97400000Y-81900000D01*
X93600000Y-84100000D02*
X93600000Y-81900000D01*
X97400000Y-81900000D02*
X97400000Y-84100000D01*
X97400000Y-84100000D02*
X93600000Y-84100000D01*
%TO.C,J4*%
X88900000Y-80900000D02*
X88900000Y-77100000D01*
X91100000Y-80900000D02*
X88900000Y-80900000D01*
X88900000Y-77100000D02*
X91100000Y-77100000D01*
X91100000Y-77100000D02*
X91100000Y-80900000D01*
%TD*%
M02*
