%TF.GenerationSoftware,KiCad,Pcbnew,7.0.5*%
%TF.CreationDate,2026-01-01T17:31:19-06:00*%
%TF.ProjectId,Lora58thsStubShunt,4c6f7261-3538-4746-9873-537475625368,rev?*%
%TF.SameCoordinates,Original*%
%TF.FileFunction,Copper,L2,Bot*%
%TF.FilePolarity,Positive*%
%FSLAX46Y46*%
G04 Gerber Fmt 4.6, Leading zero omitted, Abs format (unit mm)*
G04 Created by KiCad (PCBNEW 7.0.5) date 2026-01-01 17:31:19*
%MOMM*%
%LPD*%
G01*
G04 APERTURE LIST*
%TA.AperFunction,SMDPad,CuDef*%
%ADD10R,5.080000X2.420000*%
%TD*%
%TA.AperFunction,SMDPad,CuDef*%
%ADD11R,0.950000X0.460000*%
%TD*%
%TA.AperFunction,ComponentPad*%
%ADD12C,0.970000*%
%TD*%
%TA.AperFunction,ViaPad*%
%ADD13C,0.600000*%
%TD*%
G04 APERTURE END LIST*
D10*
%TO.P,J1,2,Ext*%
%TO.N,GND*%
X81780000Y-78620000D03*
X81780000Y-87380000D03*
D11*
X84770000Y-78620000D03*
X84770000Y-87380000D03*
D12*
X85220000Y-78620000D03*
X85220000Y-87380000D03*
%TD*%
D13*
%TO.N,GND*%
X86500000Y-88500000D03*
X88500000Y-86500000D03*
X93750000Y-88500000D03*
X86000000Y-86500000D03*
X97025000Y-85900000D03*
X95175000Y-85900000D03*
X91775000Y-85500000D03*
X93325000Y-85900000D03*
X89500000Y-88500000D03*
X87000000Y-86500000D03*
X89925000Y-85525000D03*
X96000000Y-88500000D03*
X91500000Y-88500000D03*
X96975000Y-87300000D03*
%TD*%
%TA.AperFunction,Conductor*%
%TO.N,GND*%
G36*
X87457574Y-77019685D02*
G01*
X87503329Y-77072489D01*
X87513577Y-77108620D01*
X87999998Y-80999995D01*
X88000000Y-81000000D01*
X88499998Y-81999998D01*
X88499999Y-81999999D01*
X88500000Y-82000000D01*
X97376000Y-82000000D01*
X97443039Y-82019685D01*
X97488794Y-82072489D01*
X97500000Y-82124000D01*
X97500000Y-85029330D01*
X97496892Y-85056920D01*
X97495728Y-85062019D01*
X97495730Y-85120851D01*
X97495196Y-85128974D01*
X97490175Y-85167015D01*
X97495916Y-85203896D01*
X97500000Y-87022870D01*
X97500000Y-87948637D01*
X97480315Y-88015676D01*
X97463681Y-88036318D01*
X96536319Y-88963681D01*
X96474996Y-88997166D01*
X96448638Y-89000000D01*
X81386164Y-89000000D01*
X79124441Y-88999525D01*
X79057406Y-88979826D01*
X79011662Y-88927013D01*
X79000467Y-88875559D01*
X79000000Y-87022506D01*
X79000000Y-77124000D01*
X79019685Y-77056961D01*
X79072489Y-77011206D01*
X79124000Y-77000000D01*
X87390535Y-77000000D01*
X87457574Y-77019685D01*
G37*
%TD.AperFunction*%
%TD*%
M02*
